<?xml version="1.0" encoding="utf-8"?>
<!-- Generator: Adobe Illustrator 19.2.0, SVG Export Plug-In . SVG Version: 6.00 Build 0)  -->
<svg version="1.1" id="Layer_1" xmlns="http://www.w3.org/2000/svg" xmlns:xlink="http://www.w3.org/1999/xlink" x="0px" y="0px"
	 viewBox="0 0 320 960" style="enable-background:new 0 0 320 960;" xml:space="preserve">
<style type="text/css">
	.st0{fill:#FFFFFF;stroke:#000000;stroke-miterlimit:10;}
	.st1{fill:#FFFFFF;}
	.st2{fill:#EBEBEB;}
</style>
<rect class="st0" width="320" height="960"/>
<title>mobile flat</title>
<rect class="st1" width="320" height="960"/>
<rect x="6.4" y="7.8" class="st2" width="100.6" height="100.6"/>
<rect x="116" y="7.8" class="st2" width="198.9" height="24.9"/>
<rect x="116" y="46.5" class="st2" width="198.8" height="11.5"/>
<rect x="116" y="71.4" class="st2" width="198.8" height="11.5"/>
<rect x="116" y="96.4" class="st2" width="130.1" height="11.5"/>
<polygon class="st1" points="15.4,80.8 15.2,100.1 98.6,100.1 98.5,93.8 84.5,74.5 65.7,89.1 44.7,59.8 "/>
<rect x="5.7" y="269.5" class="st2" width="100.6" height="100.6"/>
<rect x="119.3" y="269.5" class="st2" width="196.2" height="24.9"/>
<rect x="119.3" y="308.2" class="st2" width="196.2" height="11.5"/>
<rect x="119.3" y="330.6" class="st2" width="196.2" height="11.5"/>
<rect x="119.3" y="353" class="st2" width="130.1" height="11.5"/>
<polygon class="st1" points="14.7,342.5 14.5,361.8 97.9,361.8 97.8,355.5 83.8,336.2 65,350.8 44,321.5 "/>
<rect x="6.5" y="376.2" class="st2" width="100.6" height="100.6"/>
<rect x="119.3" y="420.1" class="st2" width="196.2" height="11.5"/>
<rect x="119.3" y="397.8" class="st2" width="196.2" height="11.5"/>
<rect x="119.3" y="375.4" class="st2" width="196.2" height="11.5"/>
<rect x="119.3" y="442.5" class="st2" width="196.2" height="11.5"/>
<rect x="119.3" y="464.9" class="st2" width="130.1" height="11.5"/>
<polygon class="st1" points="15.5,449.3 15.3,468.6 98.7,468.6 98.6,462.3 84.6,443 65.8,457.6 44.8,428.3 "/>
<rect x="5.9" y="113.8" class="st2" width="72.3" height="72.3"/>
<polygon class="st1" points="12.4,166.3 12.3,180.1 72.2,180.1 72.1,175.6 62.1,161.7 48.6,172.2 33.5,151.2 "/>
<rect x="84.8" y="114.4" class="st2" width="72.3" height="72.3"/>
<polygon class="st1" points="91.8,166.9 91.6,180.7 151.5,180.7 151.5,176.2 141.4,162.3 127.9,172.8 112.8,151.8 "/>
<rect x="163.6" y="114.4" class="st2" width="72.3" height="72.3"/>
<polygon class="st1" points="170.4,166.9 170.2,180.7 230.1,180.7 230,176.2 220,162.3 206.5,172.8 191.4,151.8 "/>
<rect x="6.3" y="190.9" class="st2" width="72.3" height="72.3"/>
<polygon class="st1" points="12.8,243.4 12.6,257.2 72.5,257.2 72.4,252.7 62.4,238.8 48.9,249.3 33.8,228.3 "/>
<rect x="85.1" y="191.5" class="st2" width="72.3" height="72.3"/>
<polygon class="st1" points="92.1,244 92,257.8 151.9,257.8 151.8,253.3 141.7,239.4 128.2,249.9 113.2,228.9 "/>
<rect x="163.9" y="191.5" class="st2" width="72.3" height="72.3"/>
<polygon class="st1" points="170.7,244 170.6,257.8 230.4,257.8 230.4,253.3 220.3,239.4 206.8,249.9 191.7,228.9 "/>
<rect x="242.4" y="113.7" class="st2" width="72.3" height="72.3"/>
<polygon class="st1" points="248.9,166.2 248.8,180 308.7,180 308.6,175.5 298.5,161.6 285,172.1 270,151.1 "/>
<rect x="242.8" y="190.8" class="st2" width="72.3" height="72.3"/>
<polygon class="st1" points="250.3,243.2 250.1,257.1 310,257.1 309.9,252.6 299.9,238.7 286.4,249.2 271.3,228.2 "/>
<rect x="6.4" y="485.8" class="st2" width="100.6" height="100.6"/>
<rect x="116" y="485.8" class="st2" width="198.9" height="24.9"/>
<rect x="116" y="524.5" class="st2" width="198.8" height="11.5"/>
<rect x="116" y="549.5" class="st2" width="198.8" height="11.5"/>
<rect x="116" y="574.4" class="st2" width="130.1" height="11.5"/>
<polygon class="st1" points="15.4,558.8 15.2,578.1 98.6,578.1 98.5,571.8 84.5,552.5 65.7,567.1 44.7,537.8 "/>
<rect x="5.7" y="747.5" class="st2" width="100.6" height="100.6"/>
<rect x="119.3" y="747.5" class="st2" width="196.2" height="24.9"/>
<rect x="119.3" y="786.2" class="st2" width="196.2" height="11.5"/>
<rect x="119.3" y="808.6" class="st2" width="196.2" height="11.5"/>
<rect x="119.3" y="831" class="st2" width="130.1" height="11.5"/>
<polygon class="st1" points="14.7,820.5 14.5,839.8 97.9,839.8 97.8,833.5 83.8,814.2 65,828.8 44,799.5 "/>
<rect x="6.5" y="854.2" class="st2" width="100.6" height="100.6"/>
<rect x="119.3" y="898.1" class="st2" width="196.2" height="11.5"/>
<rect x="119.3" y="875.8" class="st2" width="196.2" height="11.5"/>
<rect x="119.3" y="853.3" class="st2" width="196.2" height="11.5"/>
<rect x="119.3" y="920.5" class="st2" width="196.2" height="11.5"/>
<rect x="119.3" y="942.9" class="st2" width="130.1" height="11.5"/>
<polygon class="st1" points="15.5,927.3 15.3,946.6 98.7,946.6 98.6,940.3 84.6,921 65.8,935.6 44.8,906.3 "/>
<rect x="5.9" y="591.8" class="st2" width="72.3" height="72.3"/>
<polygon class="st1" points="12.4,644.3 12.3,658.1 72.2,658.1 72.1,653.6 62.1,639.7 48.6,650.2 33.5,629.2 "/>
<rect x="84.8" y="592.4" class="st2" width="72.3" height="72.3"/>
<polygon class="st1" points="91.8,644.9 91.6,658.7 151.5,658.7 151.5,654.2 141.4,640.3 127.9,650.8 112.8,629.8 "/>
<rect x="163.6" y="592.4" class="st2" width="72.3" height="72.3"/>
<polygon class="st1" points="170.4,644.9 170.2,658.7 230.1,658.7 230,654.2 220,640.3 206.5,650.8 191.4,629.8 "/>
<rect x="6.3" y="668.9" class="st2" width="72.3" height="72.3"/>
<polygon class="st1" points="12.8,721.4 12.6,735.2 72.5,735.2 72.4,730.7 62.4,716.8 48.9,727.3 33.8,706.3 "/>
<rect x="85.1" y="669.5" class="st2" width="72.3" height="72.3"/>
<polygon class="st1" points="92.1,722 92,735.8 151.9,735.8 151.8,731.3 141.7,717.4 128.2,727.9 113.2,706.9 "/>
<rect x="163.9" y="669.5" class="st2" width="72.3" height="72.3"/>
<polygon class="st1" points="170.7,722 170.6,735.8 230.4,735.8 230.4,731.3 220.3,717.4 206.8,727.9 191.7,706.9 "/>
<rect x="242.4" y="591.7" class="st2" width="72.3" height="72.3"/>
<polygon class="st1" points="248.9,644.2 248.8,658 308.7,658 308.6,653.5 298.5,639.6 285,650.1 270,629.1 "/>
<rect x="242.8" y="668.8" class="st2" width="72.3" height="72.3"/>
<polygon class="st1" points="250.3,721.2 250.1,735.1 310,735.1 309.9,730.6 299.9,716.7 286.4,727.2 271.3,706.2 "/>
</svg>
